<svg id="svg" version="1.1" xmlns="http://www.w3.org/2000/svg" xmlns:xlink="http://www.w3.org/1999/xlink" width="45" height="45" viewBox="0, 0, 400,400"><g id="svgg"><path id="path0" d="M232.800 65.325 C 232.800 65.394,233.385 65.979,234.100 66.625 L 235.400 67.800 234.225 66.500 C 233.130 65.288,232.800 65.016,232.800 65.325 M33.178 192.300 L 31.800 193.800 33.300 192.422 C 34.125 191.663,34.800 190.988,34.800 190.922 C 34.800 190.616,34.462 190.904,33.178 192.300 M25.375 199.700 L 24.200 201.000 25.500 199.825 C 26.215 199.179,26.800 198.594,26.800 198.525 C 26.800 198.216,26.470 198.488,25.375 199.700 " stroke="none" fill="#000000" fill-rule="evenodd"></path><path id="path1" d="M195.353 41.340 C 192.238 42.134,189.999 43.649,185.297 48.148 C 180.551 52.687,178.002 54.989,176.222 56.342 C 175.575 56.834,169.185 63.034,162.022 70.119 C 154.860 77.204,147.392 84.343,145.426 85.982 C 143.460 87.622,139.649 91.132,136.957 93.782 C 131.001 99.644,123.373 106.882,120.413 109.480 C 119.210 110.536,113.630 115.924,108.013 121.453 C 102.396 126.982,94.830 134.197,91.200 137.487 C 87.570 140.776,80.910 147.121,76.400 151.587 C 71.890 156.053,66.130 161.524,63.600 163.745 C 61.070 165.966,55.580 171.117,51.400 175.194 C 47.220 179.270,41.190 185.024,38.000 187.982 C 22.924 201.959,16.800 208.696,16.800 211.304 C 16.800 211.819,16.590 212.450,16.333 212.707 C 15.705 213.335,15.705 220.265,16.333 220.893 C 16.590 221.150,16.800 221.781,16.800 222.296 C 16.800 224.264,18.495 226.465,23.505 231.004 C 39.878 245.838,47.081 246.612,59.335 234.855 L 64.600 229.804 64.820 289.602 C 65.038 348.786,65.081 350.561,66.349 353.727 C 67.714 357.134,70.927 359.266,75.800 359.998 C 81.632 360.875,324.580 360.336,327.310 359.441 C 330.250 358.476,332.943 356.149,333.730 353.893 C 335.716 348.203,335.600 352.246,335.600 288.907 L 335.600 229.905 337.032 230.997 C 337.820 231.598,338.966 232.564,339.579 233.145 C 344.394 237.703,345.629 238.789,347.296 239.933 C 350.340 242.020,352.135 242.521,356.600 242.532 C 363.509 242.547,366.355 240.914,377.424 230.581 C 385.034 223.477,386.691 216.311,382.566 208.335 C 381.887 207.020,372.855 197.791,366.600 192.020 C 362.364 188.111,353.788 179.882,345.388 171.664 C 341.641 167.999,337.086 163.740,335.267 162.200 C 327.773 155.858,324.977 153.273,316.176 144.546 C 311.102 139.516,304.910 133.510,302.414 131.200 C 299.919 128.890,297.679 126.777,297.438 126.505 C 297.014 126.025,288.245 117.600,272.616 102.653 C 268.444 98.664,262.714 93.150,259.881 90.400 C 253.662 84.363,253.461 84.175,249.191 80.407 C 242.095 74.146,236.731 69.137,228.800 61.365 C 224.290 56.946,219.250 52.092,217.600 50.578 C 215.950 49.064,213.631 46.874,212.446 45.711 C 208.121 41.466,201.501 39.773,195.353 41.340 M176.654 218.366 C 179.132 219.444,185.203 225.565,188.064 229.871 C 194.219 239.137,207.284 238.931,212.899 229.481 C 220.620 216.484,232.416 213.602,241.346 222.531 C 243.999 225.184,245.269 227.895,246.211 232.919 C 247.151 237.928,242.324 252.271,237.636 258.400 C 236.479 259.913,235.977 260.629,233.709 264.000 C 232.895 265.210,231.303 267.280,230.171 268.600 C 229.039 269.920,227.036 272.350,225.719 274.000 C 222.810 277.646,203.038 297.440,201.503 298.243 C 199.403 299.342,199.411 299.347,189.600 289.773 C 179.917 280.324,172.829 272.593,169.704 268.074 C 168.992 267.043,167.879 265.480,167.231 264.600 C 163.400 259.398,162.374 257.690,158.627 250.277 C 154.260 241.638,153.237 234.016,155.608 227.780 C 158.575 219.975,169.312 215.173,176.654 218.366 " stroke="none" fill="#909cec" fill-rule="evenodd"></path></g></svg>