<?xml version="1.0" standalone="no"?>
<!DOCTYPE svg PUBLIC "-//W3C//DTD SVG 20010904//EN"
 "http://www.w3.org/TR/2001/REC-SVG-20010904/DTD/svg10.dtd">
<svg version="1.0" xmlns="http://www.w3.org/2000/svg"
 width="1000.000000pt" height="665.000000pt" viewBox="0 0 1000.000000 665.000000"
 preserveAspectRatio="xMidYMid meet">

<g transform="translate(0.000000,665.000000) scale(0.100000,-0.100000)"
fill="#000000" stroke="none">
<path d="M0 4893 c0 -1316 3 -1754 11 -1746 14 14 15 52 4 106 -6 32 -4 44 15
69 12 16 25 48 27 69 5 37 4 39 -18 37 -19 -2 -23 1 -21 17 1 11 3 87 5 168 1
95 6 150 13 155 18 11 24 100 8 113 -15 13 -20 64 -5 55 5 -4 16 -3 25 0 18 7
23 74 6 74 -16 0 -11 73 6 99 12 17 13 26 5 34 -13 13 -14 96 -1 117 5 8 13
11 17 6 4 -5 2 -11 -4 -13 -14 -5 -18 -23 -5 -23 4 0 15 7 25 14 18 14 18 16
1 48 -9 18 -22 36 -28 40 -7 5 -3 15 12 31 12 13 22 29 22 35 0 7 5 12 10 12
6 0 10 20 10 45 0 27 5 45 11 45 9 0 10 -25 6 -89 -4 -72 -3 -89 8 -85 8 3 15
33 20 82 4 42 15 96 25 120 l19 42 -31 0 c-23 0 -29 4 -24 16 3 9 6 23 6 32 0
13 5 12 19 -7 l19 -24 7 41 c4 23 11 40 16 37 12 -8 79 5 79 15 0 4 -10 11
-22 15 -20 6 -21 8 -5 12 10 3 27 -3 38 -13 25 -22 36 -11 21 21 -18 38 -16
175 2 175 7 0 20 7 27 16 12 14 14 14 20 -2 5 -16 9 -14 23 14 10 19 15 40 12
48 -3 9 5 26 21 40 19 18 27 37 31 74 2 28 8 50 12 50 4 0 13 18 20 40 9 26
19 40 31 40 12 0 19 11 24 41 5 29 13 43 27 47 20 5 21 37 1 37 -6 0 -15 3
-19 8 -4 4 2 7 13 7 12 0 23 7 27 15 4 11 13 14 31 9 14 -3 25 -3 25 2 0 17
-25 74 -32 74 -4 0 -8 7 -8 15 0 8 4 15 10 15 5 0 12 11 16 25 3 14 12 25 19
25 7 0 15 9 18 20 4 16 14 20 51 20 41 0 48 3 56 26 7 17 6 32 -1 45 -16 30
-14 69 6 128 28 87 40 53 43 -132 3 -178 8 -220 23 -196 7 12 9 12 9 0 0 -8 2
-12 5 -9 3 3 7 67 10 142 3 75 10 167 16 204 7 37 12 80 11 97 -1 16 7 43 17
61 11 18 17 42 14 57 -4 21 3 34 36 66 22 22 41 47 41 56 0 25 56 75 96 87 29
7 35 13 31 29 -3 10 -1 19 4 19 6 0 6 7 0 19 -16 29 28 61 86 61 62 0 47 12
-19 15 -29 1 -56 3 -60 4 -14 2 -8 39 7 45 9 3 15 0 15 -8 0 -9 7 -12 20 -9
26 7 25 19 -2 28 -17 6 -2 10 56 18 60 7 80 7 86 -3 5 -7 10 2 14 25 5 26 4
40 -5 46 -7 4 6 5 29 2 28 -4 42 -2 42 6 0 6 -7 11 -15 11 -19 0 -19 19 0 26
8 4 15 12 15 20 0 8 6 14 14 14 9 0 12 7 9 20 -4 16 3 21 41 31 26 6 49 15 52
20 3 5 -331 9 -775 9 l-781 0 0 -1757z m477 245 c-3 -8 -6 -5 -6 6 -1 11 2 17
5 13 3 -3 4 -12 1 -19z m-157 -303 c0 -21 -5 -25 -27 -24 -17 1 -21 3 -11 6 9
2 20 13 23 24 9 26 15 24 15 -6z m-280 -855 c0 -5 -4 -10 -10 -10 -5 0 -10 5
-10 10 0 6 5 10 10 10 6 0 10 -4 10 -10z"/>
<path d="M4590 6646 c0 -2 7 -6 15 -10 8 -3 15 -1 15 4 0 6 -7 10 -15 10 -8 0
-15 -2 -15 -4z"/>
<path d="M5233 6638 c2 -9 20 -12 54 -10 48 3 51 2 81 -36 28 -35 76 -59 86
-43 2 3 7 27 11 54 l7 47 -122 0 c-93 0 -121 -3 -117 -12z"/>
<path d="M5616 6533 c3 -65 7 -271 8 -458 6 -571 10 -701 23 -717 10 -11 10
-17 1 -26 -8 -8 -8 -12 -1 -12 16 0 29 22 31 54 1 17 8 33 15 38 15 9 13 106
-3 122 -16 16 -12 30 5 16 21 -18 20 3 -2 37 -16 24 -16 26 -1 21 11 -5 15 -2
13 10 -2 9 -4 17 -5 17 -3 0 -14 113 -14 147 0 20 -3 35 -7 32 -9 -5 -19 50
-17 90 1 25 2 23 8 -14 l7 -45 1 38 c1 25 -5 48 -20 68 -20 26 -21 33 -9 64 7
20 23 47 37 62 13 14 24 37 23 52 l-1 26 -13 -30 c-8 -16 -14 -36 -15 -44 0
-8 -3 -12 -6 -9 -3 3 4 37 15 74 11 38 22 102 25 143 4 41 9 77 11 79 2 3 12
-1 21 -9 9 -8 28 -12 42 -10 33 4 122 97 122 127 0 38 -64 60 -89 31 -6 -8
-29 -19 -52 -26 -55 -17 -61 -7 -56 92 l5 77 -54 0 -54 0 6 -117z"/>
<path d="M6507 6617 c-3 -19 -5 -85 -4 -148 2 -94 5 -114 17 -114 13 0 15 23
15 147 0 103 -3 148 -11 148 -6 0 -14 -15 -17 -33z"/>
<path d="M6860 6505 c0 -134 1 -145 20 -155 20 -10 20 -8 20 145 0 148 -1 155
-20 155 -19 0 -20 -7 -20 -145z"/>
<path d="M7220 6373 c0 -277 4 -338 21 -311 18 28 6 588 -13 588 -4 0 -8 -125
-8 -277z"/>
<path d="M7996 6622 c5 -15 7 -45 5 -67 -3 -43 -3 -94 -3 -225 1 -146 0 -149
-98 -197 -98 -48 -194 -83 -227 -83 -16 0 -23 -6 -23 -19 0 -45 -61 -38 -80 9
-7 16 -14 30 -17 30 -3 0 -37 -15 -76 -34 -40 -19 -93 -43 -119 -53 l-47 -18
39 -32 38 -33 74 30 c125 51 143 41 152 -82 11 -146 26 -645 28 -903 1 -191 3
-228 8 -155 4 52 4 334 0 625 -3 292 -3 544 2 562 5 17 14 33 21 36 127 54
264 107 278 107 31 0 39 -26 44 -138 3 -61 10 -124 16 -139 10 -26 11 -27 24
-9 8 10 18 15 24 12 15 -10 31 -76 30 -122 -2 -40 8 -652 15 -956 3 -134 1
-169 -10 -179 -7 -6 -20 -9 -28 -6 -18 7 -23 -5 -37 -106 -9 -59 -10 -99 -2
-138 10 -59 11 -58 31 54 15 77 32 110 62 117 16 3 32 19 43 42 18 36 58 58
109 58 9 0 19 4 22 8 3 5 -22 9 -55 9 -49 0 -64 4 -82 22 -22 21 -22 29 -31
429 -5 224 -8 553 -8 731 1 301 2 326 19 350 14 18 68 44 197 93 184 71 207
74 220 31 12 -43 34 -738 39 -1232 4 -371 9 -351 -88 -371 -33 -7 -71 -18 -85
-26 -22 -12 -14 -13 66 -7 66 4 93 2 99 -6 5 -9 10 -8 19 5 8 11 31 18 66 21
30 2 61 9 70 14 12 8 12 9 -5 8 -37 -2 -45 1 -45 18 0 9 -9 26 -19 37 -22 24
-40 126 -30 173 3 18 3 141 -1 275 -5 134 -9 425 -11 648 -1 223 -2 421 -3
441 -1 78 56 115 304 199 153 51 170 48 171 -32 1 -50 1 -51 10 -20 5 17 12
32 14 32 2 0 12 -15 21 -32 13 -24 18 -62 19 -141 1 -59 5 -111 9 -114 7 -8 7
-11 14 245 l2 93 44 47 c30 32 62 54 98 67 l53 20 -239 3 -239 2 -71 -34 c-39
-19 -88 -40 -109 -48 -37 -12 -40 -11 -58 11 -10 13 -19 34 -19 47 0 22 -4 24
-53 24 l-52 0 3 -109 c3 -65 0 -116 -7 -128 -5 -11 -36 -31 -68 -44 -32 -12
-97 -42 -145 -66 -136 -67 -204 -75 -222 -27 -3 8 -6 96 -6 194 l0 178 -56 1
-56 0 8 -27z m60 -184 c-3 -18 -5 -36 -5 -40 -1 -5 -5 -8 -11 -8 -11 0 -14 63
-3 73 15 16 23 5 19 -25z"/>
<path d="M9795 6538 c4 -62 11 -162 16 -223 5 -60 10 -155 10 -210 1 -91 2
-95 9 -45 10 63 12 510 4 558 -5 23 -12 32 -25 32 -18 0 -19 -6 -14 -112z"/>
<path d="M4440 6539 c0 -5 5 -7 10 -4 6 3 10 8 10 11 0 2 -4 4 -10 4 -5 0 -10
-5 -10 -11z"/>
<path d="M3533 6359 c-29 -36 -28 -124 2 -113 18 7 28 60 17 98 -6 23 -10 26
-19 15z"/>
<path d="M1212 6308 c-7 -7 -12 -27 -12 -46 0 -30 2 -33 15 -22 11 9 13 16 5
24 -16 16 -12 24 12 28 12 2 23 9 26 16 5 16 -30 16 -46 0z"/>
<path d="M5942 6291 c-10 -6 -8 -10 9 -14 26 -7 34 -3 24 12 -7 13 -15 14 -33
2z"/>
<path d="M5926 6262 c-2 -4 4 -8 14 -8 10 0 16 4 14 8 -3 4 -9 8 -14 8 -5 0
-11 -4 -14 -8z"/>
<path d="M6625 6246 l-40 -13 55 -8 c30 -5 46 -10 35 -13 -61 -12 -95 -24 -90
-32 4 -6 -6 -14 -22 -20 -15 -5 -41 -16 -56 -25 -16 -8 -36 -15 -46 -15 -9 0
-21 -4 -26 -9 -6 -5 -21 -12 -35 -16 l-25 -7 24 26 c16 17 20 26 11 26 -24 0
-134 -22 -179 -36 -25 -8 -58 -14 -75 -14 -28 0 -29 -1 -10 -15 18 -14 17 -15
-11 -9 -16 3 -36 8 -44 10 -9 3 -12 -2 -8 -15 2 -10 0 -25 -5 -32 -8 -11 -9
-10 -5 2 4 13 1 15 -14 12 -18 -5 -28 -43 -11 -43 5 0 15 -11 22 -25 7 -13 17
-22 22 -19 13 8 28 -5 22 -20 -3 -8 -14 -16 -25 -19 -10 -3 -19 -13 -19 -24 0
-15 -2 -15 -9 -3 -6 8 -7 27 -4 44 5 25 4 29 -14 24 -15 -4 -24 3 -38 28 -19
35 -29 41 -40 24 -3 -5 -3 -10 2 -10 13 0 65 -108 58 -120 -9 -15 -47 39 -40
57 2 7 -2 10 -11 6 -18 -7 -18 -12 6 -48 24 -36 25 -46 5 -39 -8 4 -15 12 -15
19 0 6 -9 20 -20 30 -19 18 -20 17 -20 -3 0 -11 4 -32 10 -47 8 -22 7 -25 -8
-23 -19 3 -19 -2 -1 -48 10 -25 9 -40 -3 -78 l-16 -47 26 23 c14 13 22 17 18
11 -4 -7 -2 -22 5 -34 6 -12 11 -60 11 -107 0 -47 3 -79 8 -73 10 18 19 -32
14 -83 -3 -23 -6 -68 -7 -101 -3 -64 -27 -135 -34 -102 -5 21 -19 22 -27 1 -3
-8 -10 -13 -15 -10 -18 11 -39 -6 -56 -45 -10 -22 -23 -38 -29 -36 -13 5 -12
15 2 75 7 32 7 42 -1 39 -7 -2 -13 -14 -15 -26 -2 -15 -9 -21 -18 -17 -9 3
-16 -4 -20 -22 -12 -56 -22 -66 -16 -17 5 47 4 49 -13 35 -16 -14 -17 -13 -11
8 6 18 3 22 -12 22 -25 0 -39 17 -45 55 -3 21 -4 18 -3 -10 1 -30 -3 -41 -14
-42 -82 -5 -169 -15 -185 -20 -26 -8 -113 -80 -126 -105 -9 -16 -4 -15 30 7
22 15 45 25 52 23 7 -2 -3 -14 -22 -26 -19 -11 -52 -47 -75 -79 -26 -37 -47
-57 -58 -55 -9 2 -16 -4 -16 -11 0 -8 -6 -20 -14 -27 -34 -27 -113 -208 -141
-320 -9 -36 -32 -112 -50 -170 -41 -127 -72 -247 -81 -317 -5 -38 -11 -53 -25
-56 -15 -4 -19 -14 -19 -45 0 -21 -4 -52 -9 -68 -6 -16 -17 -63 -26 -105 l-16
-75 -45 -12 c-27 -7 -42 -16 -39 -23 7 -11 -34 -78 -74 -119 -13 -14 -35 -42
-49 -62 -13 -21 -25 -38 -26 -38 0 0 -1 78 -1 173 0 201 -2 206 -89 218 -82
11 -82 13 -68 -213 10 -158 17 -530 12 -663 -1 -16 2 -47 6 -67 5 -29 -3 -66
-36 -165 -22 -70 -47 -146 -53 -168 -12 -41 -33 -52 -48 -25 -4 8 -19 38 -31
65 -40 85 -77 136 -109 147 -16 5 -29 16 -29 24 0 24 -25 16 -74 -23 -35 -29
-45 -43 -42 -59 15 -60 18 -166 6 -189 -14 -27 -7 -41 88 -155 80 -97 83 -100
72 -100 -5 0 -29 10 -52 22 -26 14 -67 24 -104 26 -67 5 -72 9 -90 87 -4 17
-14 40 -22 53 -9 13 -16 51 -17 85 -3 81 -24 188 -41 207 -9 11 -11 26 -4 55
10 44 2 55 -40 55 -42 0 -86 -49 -140 -155 -37 -71 -70 -119 -115 -165 -35
-36 -73 -84 -84 -107 -23 -46 -36 -51 -89 -32 -22 8 -46 7 -85 -1 -44 -9 -62
-8 -98 4 -50 18 -97 20 -132 7 -29 -11 -311 14 -377 33 -27 8 -54 10 -67 5
-13 -5 -35 -4 -52 2 -19 7 -36 7 -48 1 -32 -17 -83 4 -83 34 0 16 -31 34 -62
35 -13 0 -36 9 -53 20 -65 41 -74 42 -337 43 -251 1 -257 2 -277 23 l-21 22
58 12 c45 9 81 9 177 -2 168 -19 438 -8 770 32 44 5 150 9 235 8 233 -2 335 2
285 11 -38 7 -38 7 18 9 41 1 57 5 57 15 0 8 20 20 46 27 26 8 49 20 51 27 3
6 11 12 18 12 15 0 25 22 25 54 0 25 -23 50 -57 60 -11 4 -23 13 -26 20 -3 8
-24 24 -46 37 -60 33 -54 54 22 87 34 15 47 27 47 41 0 12 6 21 14 21 9 0 12
-7 9 -21 -4 -16 -2 -20 8 -17 8 3 14 11 14 19 0 8 6 24 13 36 11 19 9 24 -21
44 -17 13 -35 27 -38 32 -4 6 -24 6 -52 -2 -39 -9 -50 -8 -76 7 -36 20 -37 29
-12 60 20 23 57 30 63 11 7 -20 115 -15 138 6 11 10 20 14 20 10 0 -5 5 -4 11
2 8 8 7 17 -4 33 -9 12 -13 29 -10 37 10 26 -18 63 -49 63 -26 0 -28 3 -29 38
-1 40 1 65 6 70 2 2 22 5 44 5 22 1 43 7 45 13 2 6 1 35 -4 65 -5 34 -8 43 -9
24 -2 -28 -2 -29 -16 -11 -8 10 -16 24 -18 30 -3 8 -11 7 -27 -2 -20 -12 -22
-12 -17 1 3 9 -3 25 -14 38 -10 12 -19 28 -19 36 0 7 -4 13 -9 13 -6 0 -9 18
-8 40 1 25 6 40 14 40 7 0 13 -7 13 -15 0 -8 5 -15 10 -15 6 0 10 11 10 25 0
14 4 25 9 25 5 0 19 16 30 36 13 22 27 34 35 31 13 -5 21 17 28 71 1 6 3 12 5
12 9 0 73 -53 73 -61 0 -4 5 -20 10 -35 10 -25 12 -25 28 -11 16 15 21 15 52
-4 39 -24 54 -28 133 -34 64 -6 72 3 25 29 -18 9 -46 24 -61 32 -15 9 -38 31
-50 50 -17 26 -29 34 -52 34 -22 0 -26 3 -16 9 9 6 -12 8 -58 6 -75 -5 -104 1
-81 15 8 5 10 18 5 38 -5 26 -11 30 -45 34 -22 2 -41 -1 -43 -6 -7 -21 -62 11
-80 47 -10 20 -22 37 -27 37 -4 0 -32 -11 -62 -24 -46 -21 -58 -31 -71 -65
-13 -31 -22 -40 -44 -43 -36 -4 -461 9 -578 18 -65 4 -96 11 -114 25 -28 22
-50 23 -121 7 -40 -9 -59 -21 -84 -50 -18 -21 -48 -44 -67 -52 -43 -18 -105
-79 -130 -129 -29 -56 -69 -171 -69 -198 0 -40 -50 -200 -86 -276 -19 -39 -34
-81 -34 -92 0 -11 -5 -23 -10 -26 -6 -4 -8 -21 -4 -40 7 -37 -8 -60 -42 -67
-10 -2 -19 -10 -20 -18 -2 -35 -5 -40 -18 -40 -19 0 -27 -26 -12 -39 16 -13
19 -80 5 -97 -6 -7 -8 -18 -5 -23 4 -5 2 -13 -4 -16 -6 -4 -8 -15 -5 -25 3
-11 0 -20 -10 -24 -8 -3 -15 -10 -15 -15 0 -11 -69 -81 -80 -81 -5 0 -11 -18
-15 -40 -6 -34 -11 -40 -31 -40 -20 0 -24 -5 -24 -31 0 -16 -4 -28 -8 -25 -5
3 -14 -10 -21 -29 -19 -53 -54 -75 -118 -75 -33 0 -63 -6 -79 -17 l-26 -16 24
-13 c12 -7 31 -13 41 -14 10 0 16 -3 14 -7 -3 -5 15 -6 39 -4 l45 3 -12 -26
c-14 -30 -26 -33 -31 -8 -3 13 -7 11 -21 -13 -12 -22 -16 -25 -17 -11 0 14 -5
17 -22 11 -13 -3 -33 -9 -45 -12 -11 -3 -23 -14 -26 -24 -3 -13 -15 -19 -34
-20 l-28 -1 30 -8 30 -8 -35 -2 -35 -3 35 -7 35 -7 -30 -3 c-16 -1 -49 -1 -73
0 -24 1 -42 -3 -42 -9 0 -7 36 -11 103 -11 l102 -1 75 -105 c41 -58 116 -160
165 -227 l90 -122 3 223 2 223 88 -3 87 -3 5 -190 5 -190 135 0 135 0 3 -408
2 -407 -232 2 -233 3 -100 131 c-55 72 -129 169 -165 215 l-65 84 -3 -217 -2
-218 -230 0 -230 0 -2 268 c-2 147 -3 337 -3 422 -1 304 -6 465 -15 445 -7
-16 -9 -12 -9 18 -1 21 -4 36 -9 33 -4 -2 -7 13 -7 35 0 21 4 39 10 39 7 0 7
3 0 8 -5 4 -10 13 -11 20 -1 6 -2 27 -3 45 -2 27 -4 29 -11 12 -7 -17 -9 -17
-9 -2 -1 9 -5 17 -10 17 -12 0 -21 -26 -21 -61 0 -16 -9 -38 -20 -49 -24 -24
-25 -36 -5 -44 8 -3 15 -11 15 -17 0 -8 -4 -8 -15 1 -13 10 -15 9 -15 -9 0
-18 -6 -21 -40 -21 -33 0 -40 -3 -40 -20 0 -17 -7 -13 -40 20 -35 35 -40 37
-40 19 0 -21 -3 -22 -61 -15 -34 3 -70 6 -80 6 -11 0 -19 7 -19 15 0 8 -11 22
-25 31 -25 17 -33 48 -15 59 6 3 10 13 10 21 0 8 -4 14 -10 14 -5 0 -10 -7
-10 -15 0 -8 -7 -15 -15 -15 -8 0 -15 5 -15 10 0 6 -17 10 -39 10 -38 0 -38 0
-45 46 -3 26 -5 59 -5 73 1 25 2 25 9 -4 l8 -30 1 27 c1 31 -25 50 -67 48 -46
-3 -53 -1 -50 18 3 14 -6 17 -61 20 -64 3 -91 17 -91 46 0 9 -4 16 -10 16 -5
0 -10 -8 -10 -17 0 -10 -5 -25 -10 -33 -7 -12 -9 -11 -9 5 2 139 -3 336 -10
360 -6 18 -10 -578 -10 -1487 l-1 -1518 1485 0 c824 0 1485 4 1485 9 0 4 -12
7 -27 5 -28 -4 -28 -4 -3 5 16 5 34 3 52 -6 22 -11 619 -13 3518 -13 l3490 0
0 364 c0 361 0 364 -21 369 -18 5 -20 2 -15 -18 5 -21 2 -25 -31 -34 -21 -5
-51 -11 -68 -13 -16 -2 -33 -7 -36 -12 -4 -4 -33 -10 -65 -12 -58 -3 -84 -19
-84 -50 0 -7 -10 -16 -22 -20 -13 -4 -35 -20 -50 -36 -27 -29 -28 -29 -53 -12
-22 15 -32 15 -59 6 -20 -7 -57 -9 -100 -5 -58 5 -72 10 -95 35 -47 50 -141
49 -141 -1 0 -10 -10 -27 -22 -38 -22 -21 -25 -21 -98 -6 -41 9 -89 17 -106
17 -17 1 -39 8 -49 16 -12 10 -49 16 -116 18 -84 4 -100 2 -105 -12 -3 -9 -13
-16 -22 -16 -9 0 -26 -12 -37 -27 -20 -24 -29 -27 -101 -29 -43 -2 -94 -9
-112 -16 -32 -12 -35 -12 -54 15 -21 29 -38 33 -66 16 -14 -9 -27 -7 -63 11
-37 20 -64 24 -176 28 -94 3 -142 1 -163 -8 -25 -10 -38 -10 -70 0 -38 12 -41
12 -66 -13 -15 -15 -31 -27 -37 -27 -5 0 -15 -7 -21 -16 -8 -11 -33 -16 -86
-18 -41 -2 -105 -7 -142 -11 -65 -8 -70 -6 -144 30 -66 32 -84 36 -123 31
-107 -13 -125 -20 -139 -51 -23 -54 -29 -60 -53 -63 -14 -2 -38 4 -54 12 -19
10 -34 12 -46 5 -31 -16 -53 -9 -89 26 -19 19 -39 35 -44 35 -6 0 -37 -16 -69
-36 -48 -30 -65 -35 -94 -31 -20 4 -45 15 -57 26 -12 10 -42 29 -68 41 -52 24
-71 56 -44 75 19 14 21 36 4 53 -20 20 -3 24 53 13 32 -5 58 -6 63 0 12 11 11
12 -49 41 -58 27 -69 52 -28 63 45 11 329 21 433 14 52 -4 124 -2 160 2 36 5
90 12 120 15 30 3 64 9 75 14 11 4 38 13 60 19 22 6 51 20 64 31 22 19 23 22
7 38 -11 13 -13 21 -5 29 8 8 0 18 -30 35 -32 18 -41 29 -41 51 0 19 -7 30
-22 36 -13 5 -34 14 -48 19 -24 10 -24 11 7 8 56 -5 62 11 13 33 -25 11 -53
21 -62 21 -10 0 -18 3 -18 6 0 3 23 31 51 62 61 69 135 215 150 297 6 33 18
64 27 71 14 11 15 15 2 38 -12 24 -12 28 5 40 18 13 18 15 2 39 -19 29 -22 63
-7 72 6 3 10 15 10 25 0 21 43 103 68 133 12 14 13 22 4 42 -9 20 -18 25 -39
22 -20 -3 -27 -9 -25 -22 2 -9 -3 -24 -11 -33 -8 -10 -18 -32 -22 -49 -9 -45
-21 -49 -40 -13 -11 22 -13 35 -5 49 5 11 10 30 10 43 0 13 14 38 30 56 17 18
30 36 30 39 0 3 7 11 17 18 9 7 13 17 9 23 -12 20 -89 61 -126 67 -19 3 -42 8
-51 11 -13 3 -19 -5 -25 -33 -4 -21 -6 -42 -4 -48 1 -5 7 -37 12 -70 6 -33 21
-82 34 -108 l24 -48 -99 2 c-54 1 -104 -1 -110 -5 -18 -11 -121 112 -121 144
0 13 -50 89 -90 137 -8 10 -5 13 15 13 34 0 31 12 -8 31 -22 11 -32 23 -32 39
0 17 -6 23 -27 26 -15 1 -46 14 -70 27 -24 14 -56 28 -73 31 l-30 7 25 -21 25
-20 -33 11 c-48 16 -144 5 -200 -23 -46 -23 -47 -24 -53 -80 -8 -76 -21 -92
-59 -73 -48 25 -49 74 -3 75 14 0 7 56 -10 78 -5 6 -6 12 -2 12 19 0 -20 29
-46 35 -25 6 -43 -2 -109 -45 -44 -29 -85 -52 -92 -53 -32 -1 -49 4 -43 12 3
5 -3 12 -14 16 -11 3 -34 23 -52 43 -18 20 -34 36 -36 35 -9 -7 -38 15 -101
75 -38 37 -81 76 -95 87 -51 40 -158 149 -209 214 -16 18 -28 31 -28 27 0 -13
-27 19 -34 39 -3 11 -36 49 -72 85 -36 36 -72 77 -80 93 -8 15 -19 27 -24 27
-6 0 -10 6 -10 14 0 8 -8 21 -19 28 -17 12 -21 18 -21 36 0 4 -15 24 -34 45
-18 21 -39 57 -47 79 -7 22 -19 42 -26 45 -7 3 -13 12 -13 19 0 8 -7 17 -15
20 -8 3 -14 17 -13 30 2 22 6 24 63 24 33 0 67 -5 75 -10 8 -5 12 -10 7 -10
-16 0 25 -74 79 -143 77 -100 232 -310 282 -383 22 -34 109 -131 191 -215 122
-125 152 -151 161 -139 14 22 12 33 -6 26 -20 -8 -7 13 23 37 27 22 30 37 6
37 -13 0 -9 8 15 33 35 36 41 50 17 41 -25 -10 -17 5 20 37 31 28 50 59 26 44
-5 -3 -12 -1 -15 4 -3 5 7 21 24 34 37 32 38 39 3 33 l-28 -5 30 24 c17 14 33
25 38 25 4 0 7 12 7 26 0 16 7 28 18 30 32 9 75 93 103 204 9 37 27 61 103
135 50 50 103 107 119 127 15 21 36 42 47 48 20 11 20 8 15 -125 -7 -154 -3
-178 28 -173 24 3 25 11 8 238 -5 65 -4 112 2 124 19 39 118 151 145 165 79
42 171 129 241 228 21 31 21 34 7 75 -9 26 -16 35 -16 23 -1 -15 -4 -12 -10 9
-13 42 -15 167 -7 451 5 174 4 262 -4 290 -6 22 -12 41 -14 43 -1 1 -15 -3
-30 -10 -25 -11 -27 -15 -25 -77 3 -85 2 -101 -7 -101 -5 0 -8 40 -8 89 0 88
0 88 29 101 16 7 31 21 33 30 3 10 22 24 43 33 38 15 38 15 28 53 -22 88 -22
91 13 126 30 31 31 33 12 36 -12 2 -26 9 -32 16 -9 11 -1 17 36 30 27 10 58
20 71 23 12 3 22 9 22 12 0 10 -37 28 -88 42 -30 9 -42 17 -40 28 2 9 11 15
21 13 11 -2 19 6 23 23 3 14 11 26 18 26 41 5 64 4 60 -3 -3 -4 6 -29 20 -55
17 -34 26 -44 31 -32 3 8 -1 29 -10 45 -8 16 -15 39 -15 50 0 17 -5 20 -25 16
-19 -3 -27 1 -34 21 -9 24 -60 67 -79 67 -6 0 -35 20 -65 45 -54 44 -55 44
-60 20 -2 -14 -1 -25 2 -25 10 0 42 -92 35 -99 -10 -10 -62 61 -105 144 -23
44 -47 86 -53 94 -10 13 -20 51 -46 179 -12 58 -4 115 11 77 7 -18 8 -18 8 4
1 22 2 23 19 8 15 -13 19 -13 30 -1 20 22 29 62 37 168 5 70 4 96 -4 96 -8 0
-8 8 2 28 7 15 19 51 26 81 12 49 12 56 -3 67 -11 8 -13 14 -6 19 5 3 8 11 4
16 -4 6 -11 6 -20 -2 -8 -6 -14 -9 -14 -6 0 14 24 57 32 57 22 0 4 20 -32 34
-47 19 -109 20 -165 2z m-564 -668 c-9 -31 -9 -31 -10 -6 -1 30 11 67 16 51 2
-6 0 -26 -6 -45z m616 -100 c-3 -7 -5 -2 -5 12 0 14 2 19 5 13 2 -7 2 -19 0
-25z m23 -63 c0 -5 -5 -3 -10 5 -5 8 -10 20 -10 25 0 6 5 3 10 -5 5 -8 10 -19
10 -25z m75 -148 c11 -21 25 -35 32 -32 7 2 13 -2 13 -10 0 -22 -17 -18 -34 7
-9 12 -19 19 -22 15 -4 -4 0 -15 8 -24 18 -21 30 -53 20 -53 -20 1 -63 90 -43
90 6 0 -1 22 -14 49 -14 27 -25 53 -25 57 0 11 39 -49 65 -99z m-55 -38 c52
-89 65 -134 19 -63 -66 102 -91 154 -75 154 3 0 28 -41 56 -91z m4 65 c3 -8 2
-12 -4 -9 -6 3 -10 10 -10 16 0 14 7 11 14 -7z m-664 -54 c0 -19 -43 -6 -46
14 -5 37 7 47 27 22 10 -13 19 -29 19 -36z m138 -55 c0 -22 -3 -19 -9 15 -10
60 -9 108 2 55 4 -22 8 -53 7 -70z m625 -45 c3 -11 3 -20 1 -20 -2 0 -8 9 -14
20 -6 11 -7 20 -2 20 6 0 12 -9 15 -20z m-16 -112 c-3 -7 -5 -2 -5 12 0 14 2
19 5 13 2 -7 2 -19 0 -25z m10 -111 c2 -46 -1 -53 -18 -54 -21 -2 -26 13 -7
19 8 3 9 15 1 46 -8 30 -8 42 1 45 17 7 20 0 23 -56z m-187 -34 c19 -43 53
-112 77 -154 24 -42 48 -90 54 -107 6 -18 15 -32 20 -32 4 0 6 -6 3 -14 -3 -7
7 -62 21 -121 15 -59 24 -109 21 -113 -3 -3 -6 5 -6 17 0 12 -6 24 -14 27 -8
3 -19 26 -26 51 -12 51 -39 98 -41 73 -2 -29 -4 -35 -23 -82 -10 -27 -23 -48
-27 -48 -5 0 -17 18 -28 39 -18 38 -18 41 -2 55 10 9 28 16 40 16 12 0 19 4
16 10 -3 6 -1 10 4 10 17 0 13 40 -4 46 -8 4 -15 12 -15 19 0 6 -9 20 -21 31
-31 28 -82 94 -77 100 3 2 31 -22 63 -53 56 -57 57 -57 35 -18 -13 22 -29 47
-35 55 -7 8 -24 34 -39 58 -29 47 -22 58 9 13 11 -17 21 -29 22 -27 1 1 -7 27
-18 57 -19 48 -59 169 -59 177 0 2 4 1 9 -2 4 -3 23 -40 41 -83z m-733 35 c-3
-8 -6 -5 -6 6 -1 11 2 17 5 13 3 -3 4 -12 1 -19z m893 -106 c17 -40 30 -78 28
-84 -4 -10 -108 193 -108 209 0 22 53 -61 80 -125z m-100 34 c0 -26 -6 -18
-14 19 -5 22 -4 26 4 15 5 -8 10 -24 10 -34z m-86 -102 c3 -8 2 -12 -4 -9 -6
3 -10 10 -10 16 0 14 7 11 14 -7z m-368 -68 c-15 -31 -36 -56 -36 -42 0 13 24
56 32 56 4 0 8 8 8 17 0 9 3 13 6 10 4 -3 -1 -22 -10 -41z m603 20 c17 -20 -3
-56 -29 -56 -23 0 -28 38 -8 58 16 16 23 15 37 -2z m-518 -168 c0 -40 -3 -103
-8 -140 -9 -65 -9 -67 14 -73 13 -3 28 -3 33 0 5 3 11 1 15 -5 9 -14 21 -12
40 6 10 10 13 19 7 23 -13 8 0 73 15 78 17 6 51 -32 59 -63 5 -20 2 -31 -11
-40 -9 -7 -14 -18 -10 -23 3 -6 0 -14 -8 -17 -9 -3 -13 -13 -10 -25 4 -13 0
-19 -11 -19 -9 0 -16 -7 -16 -15 0 -20 -34 -19 -50 0 -7 9 -18 14 -24 12 -21
-8 -46 14 -46 40 0 44 -8 22 -15 -42 -3 -33 -8 -61 -11 -64 -11 -12 -2 191 12
261 9 46 14 108 12 144 -2 37 0 58 4 49 5 -8 9 -47 9 -87z m-84 -60 c-3 -8 -6
-5 -6 6 -1 11 2 17 5 13 3 -3 4 -12 1 -19z m-37 -92 c0 -6 5 -17 12 -24 12
-12 19 -342 6 -342 -4 0 -9 -12 -11 -27 -3 -16 -2 31 1 102 3 98 1 150 -12
209 -19 91 -20 110 -6 101 6 -3 10 -12 10 -19z m-896 -240 c-3 -14 -11 -26
-16 -26 -5 0 -7 6 -4 13 3 6 9 20 12 30 10 27 16 13 8 -17z m36 -16 c0 -5 -4
-10 -10 -10 -5 0 -10 5 -10 10 0 6 5 10 10 10 6 0 10 -4 10 -10z m957 -167
c-2 -32 -3 -8 -3 52 0 61 1 87 3 58 2 -29 2 -78 0 -110z m-996 127 c13 0 18 4
13 13 -5 9 -4 9 5 1 17 -15 -3 -56 -23 -48 -8 3 -16 -1 -18 -9 -2 -8 -9 -12
-19 -8 -14 5 -14 10 -1 41 8 19 17 29 19 23 3 -7 14 -13 24 -13z m942 -158 c4
-32 2 -50 -3 -47 -6 4 -10 29 -10 57 0 64 5 60 13 -10z m-46 -9 c-3 -10 -5 -4
-5 12 0 17 2 24 5 18 2 -7 2 -21 0 -30z m-10 -70 c-3 -10 -5 -2 -5 17 0 19 2
27 5 18 2 -10 2 -26 0 -35z m-2932 17 c3 -5 -1 -10 -9 -10 -9 0 -16 5 -16 10
0 6 4 10 9 10 6 0 13 -4 16 -10z m3032 -32 c-3 -7 -5 -2 -5 12 0 14 2 19 5 13
2 -7 2 -19 0 -25z m-110 -55 c-3 -10 -5 -2 -5 17 0 19 2 27 5 18 2 -10 2 -26
0 -35z m-22 -148 c-4 -25 -9 -44 -12 -41 -2 2 -1 25 2 51 4 25 9 44 12 41 2
-2 1 -25 -2 -51z m-18 -87 c-3 -7 -5 -2 -5 12 0 14 2 19 5 13 2 -7 2 -19 0
-25z m-1249 -183 c29 -9 52 -19 49 -21 -5 -5 -127 36 -127 43 0 3 6 3 13 1 6
-3 36 -13 65 -23z m399 -147 c-3 -7 -5 -2 -5 12 0 14 2 19 5 13 2 -7 2 -19 0
-25z m843 -452 c0 -3 -4 -8 -10 -11 -5 -3 -10 -1 -10 4 0 6 5 11 10 11 6 0 10
-2 10 -4z m-4743 -392 c-3 -3 -12 -4 -19 -1 -8 3 -5 6 6 6 11 1 17 -2 13 -5z
m2088 -9 c17 -2 34 -4 38 -4 5 -1 7 -16 6 -33 -3 -30 8 -43 102 -138 85 -85
112 -119 141 -180 l36 -75 8 33 c5 24 9 30 15 20 10 -16 12 -6 3 17 -5 13 -9
14 -15 4 -12 -21 -20 -6 -26 54 -5 54 -5 56 32 88 20 18 41 44 47 58 9 26 10
26 24 6 16 -21 18 -30 31 -115 l8 -55 22 60 c22 59 78 150 127 210 l25 30 -19
-57 c-24 -69 -25 -119 -5 -158 38 -73 87 -69 452 36 164 47 356 103 427 125
123 38 188 48 115 19 -19 -8 -212 -97 -429 -198 -461 -215 -473 -220 -545
-228 l-54 -7 39 -54 c21 -30 44 -70 50 -89 8 -24 19 -36 38 -40 43 -11 62 -33
62 -75 0 -21 -5 -49 -11 -62 -8 -18 -7 -32 5 -62 22 -52 20 -65 -8 -65 -16 0
-27 7 -31 20 -4 11 -11 18 -16 15 -5 -3 -6 1 -3 10 8 20 -3 65 -16 65 -6 0
-10 -25 -10 -55 0 -52 -1 -55 -25 -55 -25 0 -25 1 -25 93 0 92 0 92 -25 92
-31 0 -34 -10 -37 -115 -3 -67 -5 -75 -23 -75 -17 0 -20 8 -23 45 -5 85 -7 88
-53 80 -35 -7 -44 -4 -66 16 -14 13 -32 24 -39 24 -8 0 -11 7 -8 18 7 24 -8
-9 -49 -110 -42 -104 -97 -180 -180 -247 -261 -214 -638 -197 -874 39 l-51 51
-7 282 c-4 155 -6 293 -4 307 l4 25 143 3 142 3 0 174 0 175 -23 -9 c-21 -8
-211 -6 -372 3 -38 3 -90 5 -114 5 -32 1 -42 4 -34 12 6 6 81 12 184 15 96 2
204 9 241 15 46 7 72 7 86 0 11 -6 22 -7 26 -4 3 4 34 12 69 19 55 12 345 11
472 -1z m855 -90 c0 -28 -12 -32 -30 -10 -14 16 -6 35 16 35 8 0 14 -10 14
-25z m844 -30 c-7 -30 -61 -132 -74 -140 -4 -2 -12 1 -18 8 -8 9 -2 29 20 72
36 72 46 85 64 85 10 0 13 -7 8 -25z m1646 -105 c6 -11 7 -20 2 -20 -6 0 -12
9 -15 20 -3 11 -3 20 -1 20 2 0 8 -9 14 -20z m-503 -91 c80 -37 234 -148 252
-183 15 -28 9 -56 -13 -56 -18 0 -49 48 -42 66 3 7 -3 18 -14 24 -10 5 -24 16
-32 23 -15 15 -119 85 -157 106 -31 17 -76 51 -68 51 4 0 37 -14 74 -31z
m-488 -67 c6 -11 35 -38 66 -61 l57 -43 -7 -68 c-6 -61 -4 -74 23 -136 16 -38
33 -80 37 -94 3 -14 41 -95 83 -180 68 -138 84 -163 146 -225 39 -38 87 -79
106 -89 l35 -20 -132 -15 c-137 -15 -183 -35 -68 -29 36 1 65 0 65 -4 0 -13
-53 -22 -135 -22 -62 0 -86 4 -107 18 -32 21 -37 46 -10 46 9 0 23 9 30 20 10
17 9 21 -16 33 -15 8 -40 17 -57 21 l-30 8 23 18 c53 43 14 80 -121 115 -248
65 -270 74 -192 76 28 1 53 1 58 0 4 0 7 3 7 8 0 5 -25 13 -55 16 -31 4 -66
16 -78 26 -22 19 -22 19 -2 31 19 11 19 11 0 19 -11 4 -34 8 -52 8 -56 2 -51
17 37 136 73 97 128 181 227 348 36 61 47 68 62 39z m-1227 -74 l27 -73 0 73
c1 65 3 72 21 72 19 0 20 -7 20 -134 0 -128 -1 -134 -20 -129 -13 3 -26 24
-40 62 -37 101 -39 102 -39 19 -1 -71 -3 -78 -21 -78 -19 0 -20 7 -20 130 0
128 0 130 23 130 19 0 27 -12 49 -72z m148 -62 c0 -122 -2 -134 -17 -131 -10
2 -21 4 -25 4 -8 1 -9 240 -1 254 2 4 13 7 24 7 18 0 19 -8 19 -134z m80 87
l1 -48 25 48 c17 32 31 47 44 47 25 0 25 -2 -1 -52 -24 -48 -20 -71 20 -118
l30 -35 1 103 0 102 60 0 c53 0 60 -2 60 -19 0 -16 -8 -20 -37 -23 -35 -3 -38
-6 -38 -33 0 -25 4 -30 28 -33 19 -2 27 -9 27 -23 0 -14 -7 -19 -30 -19 -28 0
-30 -3 -30 -34 0 -34 1 -35 42 -38 31 -2 44 -8 46 -20 3 -15 -4 -18 -45 -18
-26 0 -55 -5 -63 -10 -11 -7 -6 -10 20 -10 44 0 76 -21 84 -57 5 -19 3 -29 -9
-36 -15 -8 -15 -11 3 -30 26 -30 39 -52 24 -43 -9 5 -12 -9 -12 -48 0 -51 -11
-78 -24 -57 -4 6 -18 5 -35 -2 -23 -9 -34 -7 -55 6 -14 10 -26 24 -26 32 0 8
-4 15 -10 15 -5 0 -10 -6 -10 -12 0 -7 -3 -23 -6 -35 -5 -19 -1 -22 33 -26 21
-2 1 -4 -44 -5 -46 -1 -83 2 -83 7 0 4 11 7 25 6 27 -3 31 6 15 35 -12 23 -36
17 -43 -11 -3 -11 -14 -19 -26 -19 -17 0 -21 6 -21 31 0 27 -2 29 -15 15 -18
-18 -19 -33 -2 -40 6 -3 -4 -4 -23 -3 -30 2 -35 6 -38 30 -4 35 -32 37 -32 2
0 -19 -5 -25 -23 -25 -23 0 -32 14 -58 100 l-14 45 -3 -73 c-3 -67 -5 -73 -23
-70 -11 2 -20 6 -19 11 0 4 0 61 0 127 0 112 1 120 19 120 14 0 25 -14 39 -52
11 -29 22 -60 25 -68 3 -8 6 15 6 53 1 65 2 67 26 67 24 0 25 -2 25 -72 0 -65
1 -70 15 -52 8 11 14 41 15 72 0 48 2 52 24 52 15 0 26 -7 28 -17 3 -15 6 -14
20 7 12 19 18 58 22 160 2 74 5 136 5 138 1 1 10 2 21 2 17 0 20 -7 20 -47z
m2477 -139 c20 -5 21 -9 11 -28 -6 -11 -12 -23 -12 -26 -1 -3 -4 -4 -8 -3 -4
2 -19 -2 -34 -8 -15 -5 -35 -7 -43 -3 -18 8 -27 11 -41 13 -5 0 -10 8 -10 17
0 9 -6 14 -13 11 -8 -3 -20 -1 -28 3 -11 8 -11 10 1 14 35 12 146 18 177 10z
m-2827 -236 c0 -128 0 -129 -22 -126 -22 3 -23 8 -26 113 -3 134 1 155 28 148
19 -5 20 -14 20 -135z m2010 101 c0 -17 -23 -20 -37 -6 -13 13 -13 17 -2 30
13 14 15 14 27 -1 6 -8 12 -19 12 -23z m-2104 -94 c13 -66 23 -124 23 -128 1
-5 -9 -7 -21 -5 -17 2 -24 11 -26 31 -3 21 -9 27 -27 27 -18 0 -25 -7 -30 -30
-5 -21 -13 -30 -26 -30 -24 0 -24 -4 3 141 l22 120 30 -3 30 -3 22 -120z
m2848 40 c16 -11 22 -22 19 -35 -3 -11 -9 -18 -13 -15 -5 3 -12 0 -16 -6 -10
-16 -24 9 -24 44 0 31 3 32 34 12z m-114 -16 c9 -16 8 -20 -2 -17 -8 2 -15 0
-16 -4 -5 -19 -1 -28 13 -28 10 0 15 -10 15 -30 0 -24 -4 -30 -21 -30 -18 0
-19 2 -9 15 11 13 10 18 -2 28 -20 16 -28 50 -16 71 12 22 25 20 38 -5z m-140
-70 c0 -52 -2 -59 -20 -59 -14 0 -20 7 -20 23 0 12 -3 38 -6 59 -5 30 -3 37
12 40 30 7 34 0 34 -63z m51 64 c6 -33 4 -113 -2 -113 -5 0 -9 20 -9 45 0 31
-5 47 -15 51 -8 4 -15 10 -15 15 0 11 39 12 41 2z m-123 -28 c3 -10 0 -15 -7
-11 -16 10 -13 -8 6 -43 15 -24 15 -33 5 -43 -10 -10 -15 -10 -22 2 -5 9 -5
17 1 21 6 3 3 17 -7 36 -18 31 -13 68 9 61 6 -3 14 -13 15 -23z m272 0 c0 -8
-7 -15 -15 -15 -16 0 -20 12 -8 23 11 12 23 8 23 -8z m55 -46 c-10 -15 -25
-10 -19 6 4 8 10 12 15 9 5 -3 7 -10 4 -15z m-3181 -115 c21 -20 31 -63 18
-76 -16 -16 -47 -5 -50 20 -2 12 -9 22 -17 22 -15 0 -23 -46 -19 -110 1 -25 3
-51 3 -58 1 -22 25 -8 31 19 4 17 14 25 34 27 28 4 29 3 23 -33 -8 -50 -23
-65 -66 -65 -66 0 -76 15 -79 128 -4 98 -3 99 23 121 33 25 77 27 99 5z m94
-96 l3 -108 30 0 c16 0 31 -6 33 -12 13 -42 16 -47 30 -42 12 5 12 9 0 34 -11
20 -14 58 -12 132 3 98 4 103 25 106 22 3 22 1 25 -110 3 -105 4 -113 23 -113
19 0 20 8 23 113 2 102 4 112 21 112 37 0 40 -222 4 -262 -14 -16 -49 -28
-101 -34 -13 -1 -35 4 -50 12 -15 8 -44 14 -64 14 l-38 0 0 136 c0 135 0 135
23 132 21 -3 22 -8 25 -110z m377 92 c18 -15 20 -81 4 -97 -8 -8 -7 -17 5 -34
23 -33 20 -66 -9 -94 -19 -20 -34 -25 -75 -25 l-50 0 0 128 c0 71 3 132 8 136
11 12 99 1 117 -14z m474 -34 c-2 -2 -42 -7 -89 -11 -60 -5 -82 -4 -75 3 6 6
44 12 85 14 74 3 87 2 79 -6z m225 5 c6 -9 -40 -21 -80 -21 -28 0 -32 16 -6
23 31 8 81 7 86 -2z m-467 -232 c40 -7 67 -17 70 -26 7 -17 -15 -35 -32 -26
-7 4 -7 3 0 -4 6 -6 35 -20 65 -31 l55 -21 -51 0 c-68 -1 -187 55 -160 75 15
11 14 13 -13 19 -33 7 -43 25 -14 25 9 0 45 -5 80 -11z m-432 -39 c-11 -5 -36
-9 -55 -9 -28 0 -31 2 -15 9 11 5 36 9 55 9 28 0 31 -2 15 -9z m130 -40 c7 -5
42 -19 79 -30 73 -23 149 -60 181 -89 11 -11 29 -21 40 -24 13 -3 8 -5 -13 -6
-32 -1 -101 23 -217 74 -71 31 -103 42 -162 56 -65 16 -70 37 -10 41 42 3 82
-5 102 -22z m1745 -80 c12 -7 5 -13 -27 -26 -23 -9 -40 -21 -37 -26 10 -16
-17 -38 -47 -38 -46 0 -43 -18 6 -25 43 -7 63 -25 28 -25 -38 -1 20 -30 59
-30 53 0 48 -19 -16 -57 -49 -30 -61 -33 -134 -33 -63 0 -100 7 -170 30 -50
17 -97 30 -106 30 -9 0 -38 11 -64 24 -26 13 -79 33 -119 45 -77 23 -87 30
-76 56 5 16 18 17 112 11 58 -3 122 -8 141 -10 102 -14 138 -16 160 -8 39 14
8 22 -112 28 -112 5 -206 22 -179 32 8 3 72 -1 143 -8 93 -10 132 -10 140 -2
8 8 -2 14 -33 22 -24 6 -48 13 -54 15 -5 2 76 4 180 4 105 0 197 -4 205 -9z
m3668 -342 c-2 -25 -8 -33 -23 -33 -20 0 -31 25 -21 51 3 8 15 14 26 14 18 0
21 -5 18 -32z"/>
<path d="M6405 4290 c-3 -5 1 -10 9 -10 9 0 16 5 16 10 0 6 -4 10 -9 10 -6 0
-13 -4 -16 -10z"/>
<path d="M6321 4254 c0 -11 3 -14 6 -6 3 7 2 16 -1 19 -3 4 -6 -2 -5 -13z"/>
<path d="M3858 2093 c-12 -3 -18 -14 -18 -34 0 -27 3 -30 27 -27 15 2 29 10
31 18 4 22 -20 47 -40 43z"/>
<path d="M3821 1934 c0 -11 3 -14 6 -6 3 7 2 16 -1 19 -3 4 -6 -2 -5 -13z"/>
<path d="M3107 1926 c-47 -17 -107 -62 -107 -81 0 -8 7 -18 17 -23 11 -7 16
-24 17 -53 1 -39 -2 -44 -22 -47 -13 -2 -30 2 -38 8 -12 10 -14 7 -14 -20 0
-17 7 -47 16 -66 19 -39 31 -41 149 -23 139 21 355 7 355 -23 0 -4 70 -8 155
-8 95 0 155 4 155 10 0 14 -26 18 -187 29 -146 10 -193 22 -174 45 22 27 -17
41 -110 41 -48 0 -91 3 -95 8 -4 4 7 7 24 7 36 0 41 10 13 27 -16 10 -26 9
-50 -3 -17 -9 -40 -12 -51 -9 -17 6 -20 12 -14 41 4 21 2 40 -6 49 -10 12 -10
15 2 15 10 0 13 10 12 31 -2 23 2 29 14 26 10 -2 16 -8 15 -14 -1 -6 9 -10 22
-10 14 0 25 3 25 8 0 5 11 9 25 9 31 0 33 -17 3 -23 -13 -2 -6 -4 14 -4 31 0
36 3 26 14 -17 21 -93 53 -125 53 -15 -1 -45 -7 -66 -14z m-10 -33 c-4 -3 -1
-13 6 -21 9 -12 9 -16 0 -19 -7 -3 -13 -14 -13 -25 0 -26 -21 -19 -37 13 -7
13 -13 20 -13 15 0 -5 -3 -6 -6 -3 -9 8 37 46 55 47 8 0 11 -3 8 -7z m103
-173 c0 -13 -11 -13 -30 0 -12 8 -11 10 8 10 12 0 22 -4 22 -10z"/>
<path d="M3373 1863 c15 -2 37 -2 50 0 12 2 0 4 -28 4 -27 0 -38 -2 -22 -4z"/>
<path d="M3698 1863 c12 -2 32 -2 45 0 12 2 2 4 -23 4 -25 0 -35 -2 -22 -4z"/>
<path d="M3240 1856 c0 -2 7 -7 16 -10 8 -3 12 -2 9 4 -6 10 -25 14 -25 6z"/>
<path d="M3323 1797 c-2 -4 2 -10 11 -13 8 -3 12 -12 10 -19 -9 -23 14 -26 30
-3 24 34 20 47 -15 45 -17 -1 -33 -5 -36 -10z"/>
<path d="M3688 1789 c-19 -11 -25 -39 -8 -39 7 0 7 -6 1 -18 -9 -16 -4 -17 58
-11 100 9 115 24 59 59 -36 22 -83 25 -110 9z"/>
<path d="M4170 1620 c9 -16 8 -22 -5 -26 -8 -3 -15 -10 -15 -15 0 -13 28 1 34
17 7 17 -3 44 -15 44 -6 0 -5 -9 1 -20z"/>
<path d="M3068 1549 c37 -24 120 -37 147 -22 13 7 -1 13 -57 22 -40 7 -84 14
-98 17 -22 5 -21 3 8 -17z"/>
<path d="M5858 1513 c12 -2 30 -2 40 0 9 3 -1 5 -23 4 -22 0 -30 -2 -17 -4z"/>
<path d="M4740 1515 c0 -8 7 -15 15 -15 8 0 15 7 15 15 0 8 -7 15 -15 15 -8 0
-15 -7 -15 -15z"/>
<path d="M4660 1510 c0 -5 7 -10 15 -10 8 0 15 5 15 10 0 6 -7 10 -15 10 -8 0
-15 -4 -15 -10z"/>
<path d="M5000 1470 c0 -5 4 -10 9 -10 6 0 13 5 16 10 3 6 -1 10 -9 10 -9 0
-16 -4 -16 -10z"/>
<path d="M4326 1589 c-10 -50 -7 -69 10 -69 13 0 14 8 8 48 -8 59 -10 60 -18
21z"/>
<path d="M6951 1534 c0 -11 3 -14 6 -6 3 7 2 16 -1 19 -3 4 -6 -2 -5 -13z"/>
<path d="M6950 1480 c0 -5 5 -10 10 -10 6 0 10 5 10 10 0 6 -4 10 -10 10 -5 0
-10 -4 -10 -10z"/>
<path d="M4450 1326 c0 -30 4 -36 21 -36 17 0 20 5 17 32 -2 22 -9 34 -20 36
-15 3 -18 -4 -18 -32z"/>
<path d="M4450 1209 c0 -36 2 -40 23 -37 39 5 31 78 -9 78 -10 0 -14 -13 -14
-41z"/>
<path d="M6351 6239 c-13 -5 -21 -12 -18 -15 6 -6 87 14 87 21 0 8 -44 4 -69
-6z"/>
<path d="M6298 6213 c7 -3 16 -2 19 1 4 3 -2 6 -13 5 -11 0 -14 -3 -6 -6z"/>
<path d="M6216 6191 c-10 -16 37 -20 63 -6 26 14 26 14 -16 15 -23 0 -44 -4
-47 -9z"/>
<path d="M6440 6186 c0 -2 7 -6 15 -10 8 -3 15 -1 15 4 0 6 -7 10 -15 10 -8 0
-15 -2 -15 -4z"/>
<path d="M7045 6053 c-25 -6 -45 -22 -45 -35 0 -6 6 -8 13 -5 19 7 45 -11 32
-20 -24 -17 -57 -75 -76 -135 -16 -49 -21 -93 -22 -203 -2 -130 0 -143 21
-176 12 -20 22 -39 22 -43 0 -11 -28 -6 -33 7 -2 6 -8 9 -12 5 -22 -20 43
-118 79 -118 16 0 12 86 -5 107 -12 15 -12 16 2 11 12 -5 18 0 21 15 6 37 -2
57 -33 72 -34 18 -38 49 -13 97 11 21 14 42 9 66 -4 19 -9 67 -11 106 -4 67
-3 71 23 92 26 20 29 21 73 6 25 -8 60 -28 78 -44 18 -15 35 -28 38 -28 2 0 2
24 -1 53 -3 35 -1 47 5 37 6 -9 10 -10 10 -3 0 7 -6 16 -13 20 -8 4 -24 23
-37 41 -27 36 -37 40 -42 15 -3 -13 -11 -6 -28 24 -14 24 -27 42 -30 42 -3 -1
-14 -4 -25 -6z"/>
<path d="M5680 6019 c0 -11 -4 -18 -9 -15 -5 3 -12 -1 -15 -10 -12 -32 5 -26
37 12 16 19 16 22 2 27 -10 5 -15 0 -15 -14z"/>
<path d="M6869 6014 c-17 -18 -24 -38 -25 -67 0 -23 -4 -50 -8 -59 -5 -11 -4
-18 3 -18 6 0 11 6 11 14 0 8 6 16 14 19 7 3 16 18 19 34 3 15 10 45 15 66 12
44 4 47 -29 11z"/>
<path d="M945 5908 c-3 -13 -1 -36 4 -53 8 -27 9 -25 10 23 1 55 -5 67 -14 30z"/>
<path d="M9836 5645 c11 -399 19 -594 27 -601 9 -9 9 -25 -3 376 -6 184 -15
358 -20 385 -6 34 -8 -16 -4 -160z"/>
<path d="M7265 5565 c2 -55 4 -102 5 -105 0 -3 5 2 10 10 15 23 11 131 -5 165
-14 28 -14 23 -10 -70z"/>
<path d="M6738 5538 c4 -33 61 -160 74 -166 4 -2 12 -19 18 -38 7 -20 14 -33
16 -31 2 2 -5 32 -16 67 -11 35 -23 81 -27 103 -4 27 -12 41 -25 45 -10 2 -21
15 -24 28 -9 36 -21 29 -16 -8z"/>
<path d="M9192 5375 c0 -93 4 -213 8 -265 6 -76 7 -49 8 130 0 124 -3 243 -8
265 -5 27 -8 -14 -8 -130z"/>
<path d="M7112 5498 c-7 -7 -12 -19 -12 -28 0 -9 -5 -21 -12 -28 -12 -12 -16
-92 -4 -110 4 -7 23 -12 42 -12 29 0 34 3 30 18 -6 17 8 26 67 46 20 6 25 76
5 76 -6 0 -4 7 5 18 10 10 14 22 10 25 -11 12 -118 8 -131 -5z"/>
<path d="M6900 5346 c18 -20 35 -36 38 -36 9 0 -45 64 -58 68 -7 3 2 -12 20
-32z"/>
<path d="M5189 5206 c-8 -17 -9 -33 -1 -55 8 -22 7 -31 -1 -34 -7 -2 -12 -27
-13 -59 -1 -43 3 -60 17 -72 18 -15 19 -14 19 5 0 13 8 23 20 26 20 5 21 12
18 107 -3 96 -4 101 -25 104 -16 2 -26 -4 -34 -22z"/>
<path d="M7358 5025 c-2 -11 -4 -51 -3 -90 2 -38 1 -58 -2 -42 -8 53 -33 24
-33 -39 0 -47 -15 -35 -29 23 -9 35 -15 43 -22 33 -5 -8 -9 -23 -9 -33 0 -23
-60 -108 -71 -101 -5 2 -25 -14 -45 -36 -20 -22 -39 -38 -42 -36 -2 3 13 25
35 50 32 37 39 51 37 80 -2 24 1 35 9 33 7 -1 13 11 15 28 3 24 1 28 -9 18
-20 -20 -34 -15 -16 5 18 20 23 52 8 52 -11 0 -27 -26 -67 -110 -14 -30 -41
-74 -60 -97 -19 -23 -34 -45 -34 -50 0 -4 23 -30 50 -57 28 -27 50 -56 50 -63
0 -17 20 -17 21 0 3 26 17 -80 17 -123 l0 -45 -8 46 c-10 60 -42 128 -74 158
-32 30 -41 23 -37 -33 1 -24 -2 -47 -8 -51 -6 -3 -11 -19 -11 -34 0 -16 -7
-42 -15 -57 -9 -16 -15 -51 -15 -79 0 -27 -3 -128 -6 -223 -5 -160 -2 -206 23
-296 7 -24 15 -13 43 58 30 75 34 66 54 -132 9 -83 21 -174 27 -203 34 -179
49 -269 49 -309 0 -56 -20 -131 -49 -189 -48 -94 -91 -223 -131 -401 -40 -174
-92 -330 -110 -330 -5 0 -11 14 -15 30 -7 31 -38 56 -55 45 -15 -9 -12 -20 14
-46 25 -25 31 -70 15 -101 -8 -14 -3 -20 27 -33 37 -15 37 -15 18 -37 -19 -21
-19 -21 3 -16 13 4 26 2 29 -3 3 -5 13 -5 24 1 22 12 47 1 154 -64 69 -41 76
-43 76 -17 0 10 6 21 14 24 19 8 8 58 -15 64 -10 3 -25 15 -33 28 -15 23 -133
75 -170 75 -17 0 -18 2 -5 18 8 9 21 31 28 47 7 17 17 38 22 47 5 10 9 27 9
37 0 11 4 22 9 25 5 3 12 18 15 32 7 26 74 146 97 172 20 23 60 104 75 152 9
25 22 59 30 77 8 17 14 35 14 41 0 5 6 12 13 15 7 2 13 17 15 33 1 15 12 38
24 51 16 17 23 38 24 71 1 26 3 52 3 58 1 7 16 28 34 48 l32 37 0 150 c0 90
-4 153 -10 157 -6 4 -10 34 -10 67 0 72 -11 185 -24 239 -6 22 -7 44 -4 49 3
6 1 7 -4 4 -9 -6 -25 62 -27 115 -1 9 -4 19 -8 23 -4 4 -5 20 -2 35 4 19 1 29
-10 33 -9 4 -16 13 -16 22 0 8 -3 15 -7 15 -11 0 -8 69 5 111 5 18 9 61 8 94
-2 37 3 71 12 89 8 17 14 58 14 95 0 63 21 166 36 175 11 6 13 245 4 281 -7
25 -9 27 -14 10z m-33 -275 c-9 -41 -17 -33 -9 9 4 17 9 30 11 27 3 -2 2 -19
-2 -36z"/>
<path d="M7315 4969 c0 -49 2 -56 14 -45 9 10 11 26 6 55 -10 61 -20 57 -20
-10z"/>
<path d="M9709 4980 c-9 -5 -71 -21 -139 -35 -67 -15 -145 -35 -172 -46 -62
-24 -154 -26 -180 -2 -16 15 -18 15 -18 0 0 -9 -7 -32 -16 -50 -15 -31 -20
-34 -60 -33 -47 1 -79 -18 -55 -33 19 -12 3 -19 -76 -34 -71 -14 -97 -12 -87
4 6 10 -15 10 -60 0 -17 -3 -28 -9 -25 -12 2 -3 -2 -13 -10 -23 -8 -9 -11 -19
-8 -23 12 -11 221 28 253 48 29 17 32 17 55 2 13 -9 27 -21 30 -26 4 -6 13 0
20 12 19 29 28 27 41 -10 8 -23 13 -27 19 -17 5 7 9 23 9 36 0 13 10 33 23 46
21 20 21 25 8 33 -13 8 -10 13 18 27 25 13 45 16 83 11 36 -5 49 -4 44 4 -5 7
1 11 13 11 32 0 25 -18 -9 -24 -16 -3 -43 -9 -59 -12 -16 -3 -35 -12 -42 -20
-10 -12 -6 -13 22 -8 19 3 59 12 89 20 30 7 89 19 130 25 41 6 100 14 130 19
67 11 76 4 85 -63 l7 -51 15 37 c16 40 38 47 59 20 12 -17 13 -16 14 7 1 40
31 70 85 84 48 12 50 14 53 49 4 43 -3 45 -88 22 -71 -19 -124 -19 -140 0 -14
17 -37 19 -61 5z"/>
<path d="M4870 4950 c0 -19 3 -21 12 -12 9 9 9 15 0 24 -9 9 -12 7 -12 -12z"/>
<path d="M6960 4573 c0 -21 3 -24 9 -14 5 8 7 20 4 28 -8 21 -13 15 -13 -14z"/>
<path d="M240 4580 c0 -5 7 -10 15 -10 8 0 15 5 15 10 0 6 -7 10 -15 10 -8 0
-15 -4 -15 -10z"/>
<path d="M7928 4563 c7 -3 16 -2 19 1 4 3 -2 6 -13 5 -11 0 -14 -3 -6 -6z"/>
<path d="M7648 4538 c-2 -15 -16 -29 -38 -40 -21 -11 -28 -18 -17 -18 10 0 28
-11 41 -25 l23 -25 11 25 c6 13 26 32 44 41 l33 17 -29 8 c-15 4 -36 15 -46
24 -17 16 -19 15 -22 -7z"/>
<path d="M6952 4035 c0 -16 2 -22 5 -12 2 9 2 23 0 30 -3 6 -5 -1 -5 -18z"/>
<path d="M50 3680 c0 -5 7 -10 15 -10 8 0 15 5 15 10 0 6 -7 10 -15 10 -8 0
-15 -4 -15 -10z"/>
<path d="M1 3114 c0 -11 3 -14 6 -6 3 7 2 16 -1 19 -3 4 -6 -2 -5 -13z"/>
<path d="M9230 3083 c0 -23 5 -32 22 -36 12 -4 23 -5 23 -4 1 1 -9 17 -22 36
l-23 34 0 -30z"/>
<path d="M9874 3094 c-4 -10 -9 -22 -11 -26 -2 -5 15 -8 39 -8 37 1 40 2 23
12 -11 6 -26 17 -32 26 -11 13 -13 13 -19 -4z"/>
<path d="M2 3070 c0 -14 2 -19 5 -12 2 6 2 18 0 25 -3 6 -5 1 -5 -13z"/>
<path d="M8633 3063 c-32 -22 -29 -30 14 -42 44 -12 50 -9 37 26 -11 33 -23
36 -51 16z"/>
<path d="M43 2979 c-9 -9 -9 -19 3 -41 9 -17 13 -36 10 -43 -3 -9 2 -11 15 -8
22 6 25 19 5 26 -8 3 -16 22 -18 42 -2 28 -6 34 -15 24z"/>
<path d="M9904 2933 c-12 -2 -32 -15 -45 -29 -16 -17 -33 -24 -60 -24 -21 0
-44 -6 -51 -12 -14 -14 -76 -38 -96 -38 -7 0 -31 -12 -54 -26 -23 -15 -55 -27
-72 -28 -27 -1 -31 -5 -32 -33 -1 -18 -9 -43 -18 -57 -13 -20 -22 -24 -44 -20
-21 4 -35 -2 -61 -25 -19 -17 -42 -33 -52 -36 -9 -3 -20 -13 -23 -21 -5 -14
-8 -14 -21 0 -12 11 -28 14 -66 9 -29 -3 -73 0 -105 7 -47 12 -57 11 -64 0 -7
-12 -12 -11 -28 3 -22 21 -55 22 -71 3 -17 -20 -231 -42 -261 -26 -21 11 -79
5 -67 -7 3 -3 30 -7 59 -9 310 -21 529 -36 603 -40 50 -2 155 -9 235 -13 80
-5 183 -10 228 -11 46 0 121 -5 165 -10 45 -6 85 -10 90 -10 4 0 7 101 7 224
l0 224 -31 6 c-17 3 -34 5 -38 5 -3 -1 -16 -4 -27 -6z"/>
<path d="M9577 2868 c-9 -34 4 -47 32 -29 16 10 6 51 -14 51 -7 0 -15 -10 -18
-22z"/>
<path d="M7527 2663 c-4 -3 -3 -11 3 -18 7 -8 -8 -11 -56 -12 -35 0 -67 -2
-69 -5 -5 -5 171 -14 435 -23 120 -3 126 -3 51 5 -46 5 -87 14 -91 21 -6 8 -9
8 -14 0 -10 -16 -77 -13 -96 4 -14 13 -26 14 -65 5 -26 -6 -50 -8 -53 -5 -3 3
2 5 11 5 9 0 18 4 21 9 4 5 -3 7 -14 4 -11 -3 -20 0 -20 6 0 12 -32 15 -43 4z"/>
<path d="M8112 2621 c-18 -3 -33 -10 -34 -16 -1 -13 92 -27 157 -23 l50 3 -27
18 c-21 15 -31 16 -48 7 -16 -9 -24 -8 -36 5 -8 8 -18 14 -22 14 -4 -1 -22 -4
-40 -8z"/>
<path d="M872 2570 c-19 -31 -16 -72 6 -68 19 4 28 48 15 72 -7 13 -10 13 -21
-4z"/>
<path d="M1102 2551 c-11 -7 -11 -9 2 -14 10 -4 16 -1 16 8 0 17 -1 17 -18 6z"/>
<path d="M935 2520 c4 -6 11 -8 16 -5 14 9 11 15 -7 15 -8 0 -12 -5 -9 -10z"/>
<path d="M7406 2508 c-3 -7 -7 -49 -10 -93 -4 -59 -11 -83 -23 -92 -25 -19
-44 -16 -50 7 -5 18 -8 19 -22 7 -26 -22 -52 -28 -68 -15 -12 10 -18 7 -34
-12 -24 -32 -24 -42 1 -58 11 -7 20 -22 20 -35 0 -32 11 -44 48 -52 19 -4 57
-19 85 -34 29 -14 76 -37 105 -50 54 -23 78 -55 66 -86 -8 -19 -24 -19 -24 0
0 8 -6 15 -14 15 -26 0 -4 -50 35 -81 43 -34 52 -75 23 -100 -10 -8 -13 -21
-9 -36 11 -44 -41 -188 -70 -195 -68 -15 126 -56 370 -78 66 -6 174 -20 240
-31 66 -10 183 -26 260 -34 167 -17 321 -37 505 -64 125 -19 361 -41 590 -56
52 -3 138 -13 190 -20 86 -13 349 -45 371 -45 5 0 9 233 9 560 0 446 -3 560
-13 560 -9 0 -11 -19 -9 -75 5 -90 -3 -153 -24 -179 -26 -36 -36 -5 -36 118 0
106 -1 116 -18 116 -10 0 -21 9 -25 19 -5 17 -16 19 -108 17 l-102 -1 -5 -110
c-5 -110 -18 -155 -45 -155 -20 0 -29 58 -22 153 5 76 4 81 -21 104 -48 44
-56 31 -62 -99 -5 -123 -13 -145 -49 -133 -19 6 -21 14 -21 105 0 91 -2 101
-25 126 -41 44 -51 28 -54 -80 -2 -127 -21 -175 -56 -146 -11 9 -15 37 -15
114 0 95 -2 103 -25 129 -26 27 -37 31 -89 27 -16 -1 -32 4 -37 11 -6 10 -13
9 -33 -4 -24 -16 -25 -21 -28 -130 -2 -92 -6 -112 -18 -112 -12 0 -16 20 -18
112 -2 107 -4 114 -27 129 -17 11 -29 13 -43 5 -16 -9 -20 -26 -25 -114 -8
-124 -12 -137 -42 -137 -30 0 -35 16 -35 119 0 72 -3 91 -18 104 -10 10 -21
17 -24 17 -3 0 -8 -48 -11 -107 -5 -84 -10 -110 -23 -120 -11 -8 -23 -9 -34
-3 -14 8 -19 30 -25 114 -4 70 -11 109 -21 117 -19 16 -22 3 -26 -108 -4 -95
-15 -123 -49 -123 -28 0 -31 15 -31 121 1 87 -1 100 -18 109 -27 14 -31 3 -37
-106 -5 -74 -10 -97 -23 -104 -29 -15 -37 3 -43 96 -7 102 -13 124 -32 124
-10 0 -14 -26 -17 -95 -3 -101 -15 -128 -46 -109 -14 9 -18 29 -20 100 -3 80
-12 114 -32 114 -4 0 -11 -46 -16 -101 -7 -79 -13 -104 -26 -113 -31 -19 -40
6 -39 104 1 93 -7 120 -35 120 -11 0 -14 -20 -14 -89 0 -73 -3 -93 -19 -112
-31 -38 -45 -13 -51 94 -4 77 -8 92 -22 95 -14 3 -18 -4 -18 -31 0 -19 -3 -62
-7 -96 -5 -53 -10 -64 -30 -74 -16 -7 -27 -7 -34 0 -17 17 -29 87 -21 118 5
16 4 46 -2 66 -8 30 -15 38 -40 43 -75 16 -70 21 -76 -89 -6 -110 -11 -125
-44 -125 -37 0 -45 17 -39 86 3 34 2 71 -3 81 -6 12 -10 -9 -14 -67 -5 -84 -5
-85 -33 -88 -46 -5 -59 14 -57 82 4 100 -3 118 -9 26 -6 -82 -7 -85 -34 -95
-43 -15 -60 13 -54 87 3 32 1 61 -4 64 -5 3 -9 -21 -9 -53 0 -66 -13 -90 -50
-95 -25 -3 -25 -2 -30 89 -3 50 -7 93 -10 96 -44 36 -87 47 -94 25z m2404
-302 c0 -27 -15 -50 -28 -42 -15 9 -20 39 -10 65 7 19 11 21 23 11 8 -7 15
-22 15 -34z"/>
<path d="M1213 2393 c15 -2 37 -2 50 0 12 2 0 4 -28 4 -27 0 -38 -2 -22 -4z"/>
<path d="M920 2350 c0 -5 5 -10 10 -10 6 0 10 5 10 10 0 6 -4 10 -10 10 -5 0
-10 -4 -10 -10z"/>
<path d="M978 2343 c12 -2 32 -2 45 0 12 2 2 4 -23 4 -25 0 -35 -2 -22 -4z"/>
<path d="M6948 2103 c7 -3 16 -2 19 1 4 3 -2 6 -13 5 -11 0 -14 -3 -6 -6z"/>
<path d="M9870 740 c0 -5 15 -10 33 -9 27 0 29 2 12 9 -28 12 -45 12 -45 0z"/>
</g>
</svg>
